<svg width="12" height="14" viewBox="0 0 12 14" fill="none" xmlns="http://www.w3.org/2000/svg">
                                    <path d="M3.81666 10.833H8.18332C8.32499 10.833 8.44374 10.7848 8.53957 10.6884C8.63541 10.592 8.68332 10.4726 8.68332 10.3301C8.68332 10.1876 8.63541 10.0691 8.53957 9.97468C8.44374 9.88023 8.32499 9.83301 8.18332 9.83301H3.81666C3.67499 9.83301 3.55624 9.8812 3.46041 9.97759C3.36457 10.074 3.31666 10.1934 3.31666 10.3359C3.31666 10.4784 3.36457 10.5969 3.46041 10.6913C3.55624 10.7858 3.67499 10.833 3.81666 10.833ZM3.81666 7.99967H8.18332C8.32499 7.99967 8.44374 7.95148 8.53957 7.85509C8.63541 7.75869 8.68332 7.63925 8.68332 7.49676C8.68332 7.35426 8.63541 7.23579 8.53957 7.14134C8.44374 7.0469 8.32499 6.99967 8.18332 6.99967H3.81666C3.67499 6.99967 3.55624 7.04787 3.46041 7.14426C3.36457 7.24066 3.31666 7.3601 3.31666 7.50259C3.31666 7.64509 3.36457 7.76356 3.46041 7.85801C3.55624 7.95245 3.67499 7.99967 3.81666 7.99967ZM1.66666 13.6663C1.39999 13.6663 1.16666 13.5663 0.966656 13.3663C0.766656 13.1663 0.666656 12.933 0.666656 12.6663V1.33301C0.666656 1.06634 0.766656 0.833008 0.966656 0.633008C1.16666 0.433008 1.39999 0.333008 1.66666 0.333008H7.26666C7.40492 0.333008 7.53671 0.360786 7.66202 0.416341C7.78733 0.471897 7.89443 0.544119 7.98332 0.633008L11.0333 3.68301C11.1222 3.7719 11.1944 3.879 11.25 4.00431C11.3055 4.12962 11.3333 4.26141 11.3333 4.39967V12.6663C11.3333 12.933 11.2333 13.1663 11.0333 13.3663C10.8333 13.5663 10.6 13.6663 10.3333 13.6663H1.66666ZM7.18332 3.93301V1.33301H1.66666V12.6663H10.3333V4.43301H7.68332C7.54166 4.43301 7.42291 4.38509 7.32707 4.28926C7.23124 4.19342 7.18332 4.07467 7.18332 3.93301Z" fill="#FF9431"/>
                                </svg>