<svg width="18" height="18" viewBox="0 0 12 12" fill="none" xmlns="http://www.w3.org/2000/svg">
                            <path d="M4.5 4.125V3.1875C4.5 2.93886 4.59877 2.7004 4.77459 2.52459C4.9504 2.34877 5.18886 2.25 5.4375 2.25H9.1875C9.43614 2.25 9.6746 2.34877 9.85041 2.52459C10.0262 2.7004 10.125 2.93886 10.125 3.1875V8.8125C10.125 9.06114 10.0262 9.2996 9.85041 9.47541C9.6746 9.65123 9.43614 9.75 9.1875 9.75H5.625C5.10727 9.75 4.5 9.33023 4.5 8.8125V7.875" stroke="#42A045" stroke-linecap="round" stroke-linejoin="round"/>
                            <path d="M6.75 7.875L8.625 6L6.75 4.125M1.875 6H8.25" stroke="#42A045" stroke-linecap="round" stroke-linejoin="round"/>
                        </svg>