<svg width="15" height="15" viewBox="0 0 512 512" fill="none" xmlns="http://www.w3.org/2000/svg">
                        <g clip-path="url(#clip0_7717_127)">
                            <path d="M436.996 481.996H421.997V466.996C421.997 442.182 401.811 419.997 376.998 419.997H135.002C110.189 419.997 90.0032 442.182 90.0032 466.996V481.996H75.0035C66.7127 481.996 60.0038 488.704 60.0038 496.995C60.0038 505.286 66.7127 511.995 75.0035 511.995H436.996C445.287 511.995 451.996 505.286 451.996 496.995C451.996 488.704 445.287 481.996 436.996 481.996ZM511.982 270.136C511.982 270.09 511.995 270.046 511.995 270.001C511.995 267.569 511.286 265.363 510.261 263.332C510.164 263.138 510.212 262.911 510.105 262.72L444.856 145.273C445.587 144.971 446.367 144.856 447.088 144.524L503.278 118.627C510.793 115.155 514.089 106.249 510.617 98.7201C507.145 91.2202 498.283 87.8953 490.71 91.3812L434.535 117.279C427.284 120.59 418.773 120.912 411.259 118.041L291.366 72.4936C297.31 64.8657 300.999 55.4029 300.999 45.0041C300.999 20.1906 280.814 0.00500488 256 0.00500488C231.186 0.00500488 211.001 20.1906 211.001 45.0041C211.001 55.4029 214.691 64.8647 220.634 72.4936L100.769 118.026C93.1962 120.912 84.6853 120.589 77.4785 117.279L21.2886 91.3802C19.5009 90.5469 17.566 90.0758 15.5953 89.994C13.6247 89.9122 11.6573 90.2213 9.80677 90.9036C7.95618 91.5858 6.25897 92.6277 4.81301 93.9691C3.36706 95.3104 2.20096 96.9248 1.38197 98.7191C-2.08996 106.248 1.20597 115.155 8.72083 118.626L64.9257 144.523C65.6437 144.853 66.4197 144.968 67.1447 145.268L1.89496 262.72C1.78896 262.91 1.83596 263.137 1.73896 263.332C0.713982 265.363 0.00499576 267.569 0.00499576 270.001C0.00499576 270.047 0.0179955 270.091 0.0179955 270.136C0.0179955 270.191 0.0329952 270.242 0.0339952 270.297C0.198992 319.788 40.4762 359.998 90.0032 359.998C114.114 359.998 136.731 350.667 153.708 333.704C170.601 316.797 179.897 294.286 179.973 270.289C179.973 270.236 179.988 270.188 179.988 270.135C179.988 270.089 180.001 270.045 180.001 270C180.001 267.568 179.292 265.362 178.268 263.331C178.171 263.137 178.219 262.91 178.112 262.719L112.973 145.468L240.999 96.8071V299.999H226C217.709 299.999 211 306.708 211 314.999V389.997H300.998V314.999C300.998 306.708 294.289 299.999 285.998 299.999H270.999V96.8071L399.025 145.472L333.886 262.72C333.78 262.91 333.827 263.137 333.73 263.332C332.705 265.363 331.996 267.569 331.996 270.001C331.996 270.047 332.01 270.091 332.01 270.136C332.01 270.191 332.025 270.242 332.026 270.297C332.191 319.788 372.468 359.998 421.995 359.998C446.105 359.998 468.723 350.667 485.7 333.704C502.592 316.797 511.889 294.286 511.965 270.289C511.968 270.236 511.982 270.189 511.982 270.136ZM40.4922 255L90.0032 165.896L139.514 255H40.4922ZM421.997 165.896L471.508 255H372.487L421.997 165.896Z" fill="#176017a1"/>
                        </g>
                    </svg>