<svg width="48" height="48" viewBox="0 0 48 48" fill="none" xmlns="http://www.w3.org/2000/svg">
                                    <path fill-rule="evenodd" fill="currentColor" clip-rule="evenodd" d="M13.4105 0.15608C12.5381 0.446902 11.7392 1.40518 11.5898 2.34026L11.5287 2.72198L6.80167 2.74886L2.0746 2.77573L1.53879 3.03883C0.957994 3.32409 0.546468 3.73345 0.212741 4.3579L0 4.75603V24.9362V45.1164L0.222359 45.5408C0.52544 46.1193 0.946866 46.5468 1.5088 46.8458L1.9803 47.0967H8.14148H14.3028L14.5303 46.8321C14.8514 46.459 14.8337 46.0058 14.4829 45.613L14.2077 45.305L8.20646 45.2579L2.20511 45.2107L2.02406 44.975C1.84687 44.7442 1.843 44.3173 1.84092 24.9211L1.83885 5.10287L2.12901 4.85873L2.41908 4.61458H6.97339H11.5276L11.5888 4.99697C11.6874 5.61416 12.0118 6.18996 12.5163 6.64354C13.3079 7.35523 13.3538 7.3607 18.2132 7.32939L22.4434 7.30213L22.9234 7.04885C23.7068 6.63543 24.261 5.86849 24.4267 4.96821L24.4919 4.61458H29.0621H33.6325L33.9081 4.89022L34.1837 5.16586V24.9217V44.6777L33.9396 44.9677L33.6955 45.2579L28.0223 45.2601C24.8823 45.2614 22.1807 45.3015 21.9719 45.3498C21.4916 45.4611 21.2646 45.7399 21.2646 46.2186C21.2646 46.5071 21.3283 46.6563 21.5429 46.8709L21.8212 47.1492L27.9318 47.123L34.0423 47.0967L34.5439 46.8189C35.1039 46.5087 35.4927 46.1081 35.8099 45.5146L36.0226 45.1164V24.9834V4.85033L35.824 4.42118C35.5337 3.7938 35.0908 3.33691 34.4838 3.03883L33.948 2.77573L29.2237 2.74886L24.4994 2.72198L24.3843 2.20748C24.1691 1.246 23.3309 0.346189 22.4129 0.0912962C22.1999 0.0320758 20.4839 -0.00300377 17.9641 0.000202425C14.4692 0.00472883 13.7952 0.0278323 13.4105 0.15608ZM22.3407 2.17005C22.5758 2.44936 22.5848 2.50547 22.5848 3.67734C22.5848 4.88881 22.5835 4.89598 22.3098 5.20245L22.0347 5.51043L18.2785 5.53863C16.2125 5.5541 14.3795 5.5407 14.2052 5.50883C14.0308 5.47686 13.7868 5.34946 13.6629 5.22555C13.4469 5.00942 13.4377 4.94661 13.4377 3.6714C13.4377 2.35535 13.4402 2.34016 13.6873 2.11111L13.9368 1.87988H18.0167H22.0966L22.3407 2.17005ZM42.285 9.03141C41.2554 9.37155 40.5829 9.98186 40.086 11.027L39.7946 11.6399L39.7693 21.8128L39.7441 31.9858L41.1664 36.2879C42.073 39.0304 42.6607 40.667 42.7876 40.8022C42.9387 40.9633 43.0921 41.0144 43.4251 41.0144C43.7599 41.0144 43.9095 40.9641 44.0568 40.8022C44.1729 40.6747 44.8197 38.876 45.6784 36.2932L47.107 31.9964L47.0813 21.8181L47.0557 11.6399L46.7609 11.027C46.3318 10.1344 45.889 9.67538 45.0645 9.26782C44.4536 8.96587 44.2507 8.91382 43.5843 8.8876C43.0202 8.86535 42.6702 8.9041 42.285 9.03141ZM44.2965 10.9057C44.4546 10.9983 44.7157 11.2371 44.8768 11.4362C45.1673 11.7953 45.17 11.8084 45.2005 13.0628L45.2315 14.3275H43.3853H41.5391L41.5397 13.3609C41.5403 12.2004 41.641 11.7924 42.0386 11.3397C42.6345 10.6609 43.5714 10.4809 44.2965 10.9057ZM6.34318 11.868L6.0352 12.1431V15.2705V18.3979L6.34318 18.673L6.65117 18.9482H9.7129H12.7746L13.0826 18.673L13.3906 18.3979V15.2705V12.1431L13.0826 11.868L12.7746 11.5928H9.7129H6.65117L6.34318 11.868ZM17.6206 11.6852C17.0979 11.8989 16.9429 12.6993 17.3409 13.1287C17.465 13.2626 17.709 13.398 17.8831 13.4295C18.0574 13.4611 20.845 13.4744 24.0778 13.4593L29.9558 13.4316L30.2309 13.1237C30.5818 12.731 30.5995 12.2777 30.2785 11.9045L30.051 11.6399L23.9368 11.6213C20.5741 11.611 17.7318 11.6398 17.6206 11.6852ZM11.5517 15.3176V17.1565H9.7129H7.87405V15.3176V13.4788H9.7129H11.5517V15.3176ZM45.2168 23.5689V30.9243H43.378H41.5391V23.5689V16.2135H43.378H45.2168V23.5689ZM17.3911 17.4321C17.187 17.6362 17.1154 17.7973 17.1154 18.0523C17.1154 18.3074 17.187 18.4685 17.3911 18.6725L17.6667 18.9482L22.4126 18.9461C26.7668 18.9441 27.175 18.9306 27.3595 18.7811C27.846 18.387 27.8772 17.7048 27.4251 17.3491C27.1857 17.1609 27.071 17.1565 22.4234 17.1565H17.6667L17.3911 17.4321ZM6.45559 22.838C6.25416 22.9738 6.10734 23.1638 6.07028 23.3367C5.9756 23.778 5.98305 28.8559 6.07895 29.2693C6.24483 29.9847 6.20466 29.9769 9.72271 29.9792L12.8444 29.9813L13.0877 29.7558C13.2215 29.6317 13.3573 29.3878 13.3895 29.2136C13.4216 29.0393 13.435 27.6141 13.4193 26.0462L13.3906 23.1957L13.1293 22.9343L12.8679 22.673L9.82455 22.6458L6.78111 22.6186L6.45559 22.838ZM17.5657 22.7729C17.25 22.9442 17.1154 23.1822 17.1154 23.5689C17.1154 23.9634 17.2528 24.1977 17.5851 24.3695C17.8221 24.4921 18.687 24.5119 23.8016 24.5119C28.207 24.5119 29.8067 24.4827 29.99 24.3992C30.2603 24.276 30.506 23.8806 30.506 23.5689C30.506 23.2571 30.2603 22.8617 29.99 22.7386C29.8063 22.6548 28.2097 22.6268 23.7827 22.6297C18.7068 22.6329 17.7846 22.6541 17.5657 22.7729ZM11.5517 26.3507V28.1896H9.7129H7.87405V26.3507V24.5119H9.7129H11.5517V26.3507ZM17.3911 28.4652C17.187 28.6693 17.1154 28.8304 17.1154 29.0854C17.1154 29.3405 17.187 29.5016 17.3911 29.7056L17.6667 29.9813H22.4234C27.071 29.9813 27.1857 29.9769 27.4251 29.7886C27.8772 29.4329 27.846 28.7508 27.3595 28.3567C27.175 28.2072 26.7668 28.1936 22.4126 28.1917L17.6667 28.1896L17.3911 28.4652ZM44.8409 32.881C44.8439 33.054 43.4785 37.0538 43.4165 37.0538C43.3783 37.0538 43.0284 36.099 42.6391 34.932L41.9311 32.8103H43.3854C44.1852 32.8103 44.8402 32.8421 44.8409 32.881ZM6.48567 33.845C6.31848 33.947 6.14874 34.1483 6.10847 34.2926C6.01361 34.6323 6.01266 40.1323 6.10743 40.4709C6.14713 40.6129 6.29377 40.8039 6.43333 40.8953C6.66229 41.0453 6.98141 41.0615 9.70875 41.0615C13.035 41.0615 13.0682 41.0563 13.3043 40.4912C13.5103 39.9982 13.498 34.6149 13.2901 34.2127C13.0214 33.6931 12.7962 33.659 9.64519 33.6594C6.97273 33.6596 6.77008 33.6716 6.48567 33.845ZM17.6812 33.7623C17.1024 33.9921 16.9281 34.7508 17.343 35.2332L17.5706 35.4978H23.8107H30.0509L30.2785 35.2332C30.5995 34.8601 30.5818 34.4069 30.2309 34.0141L29.9558 33.7061L23.9364 33.6875C20.1304 33.6757 17.8303 33.7032 17.6812 33.7623ZM11.5517 37.3838V39.2227H9.7129H7.87405V37.3838V35.545H9.7129H11.5517V37.3838ZM17.6206 39.3162C16.9492 39.5872 16.9772 40.7985 17.6594 40.9895C17.8011 41.0291 20.0035 41.0615 22.5537 41.0615H27.1905L27.4289 40.8375C27.7283 40.5561 27.8236 40.1422 27.6726 39.7778C27.4412 39.2191 27.4697 39.2221 22.4245 39.2286C19.8935 39.2319 17.7318 39.2713 17.6206 39.3162ZM17.618 45.3976C17.2611 45.5501 17.1154 45.7912 17.1154 46.2291C17.1154 46.6364 17.4067 47.0157 17.7829 47.0983C18.6464 47.288 19.2461 46.2808 18.6478 45.6456C18.3288 45.307 18.0098 45.2302 17.618 45.3976Z"/>
                                    </svg>