<svg xmlns="http://www.w3.org/2000/svg" width="14" height="14" viewBox="0 0 14 14" fill="none">
                                    <path d="M7.00001 13.6663C6.07779 13.6663 5.21112 13.4913 4.40001 13.1413C3.5889 12.7913 2.88334 12.3163 2.28334 11.7163C1.68334 11.1163 1.20834 10.4108 0.858344 9.59968C0.508344 8.78856 0.333344 7.9219 0.333344 6.99967C0.333344 6.07745 0.508344 5.21079 0.858344 4.39967C1.20834 3.58856 1.68334 2.88301 2.28334 2.28301C2.88334 1.68301 3.5889 1.20801 4.40001 0.858008C5.21112 0.508008 6.07779 0.333008 7.00001 0.333008C7.92223 0.333008 8.7889 0.508008 9.60001 0.858008C10.4111 1.20801 11.1167 1.68301 11.7167 2.28301C12.3167 2.88301 12.7917 3.58856 13.1417 4.39967C13.4917 5.21079 13.6667 6.07745 13.6667 6.99967C13.6667 7.9219 13.4917 8.78856 13.1417 9.59968C12.7917 10.4108 12.3167 11.1163 11.7167 11.7163C11.1167 12.3163 10.4111 12.7913 9.60001 13.1413C8.7889 13.4913 7.92223 13.6663 7.00001 13.6663ZM6.28334 12.6497V11.283C5.89445 11.283 5.56668 11.1386 5.30001 10.8497C5.03334 10.5608 4.90001 10.2219 4.90001 9.83301V9.09968L1.48334 5.68301C1.42779 5.90523 1.3889 6.12467 1.36668 6.34134C1.34445 6.55801 1.33334 6.77745 1.33334 6.99967C1.33334 8.44412 1.80279 9.70523 2.74168 10.783C3.68057 11.8608 4.86112 12.483 6.28334 12.6497ZM11.1833 10.8497C11.4278 10.583 11.6417 10.2997 11.825 9.99967C12.0083 9.69967 12.1639 9.38579 12.2917 9.05801C12.4195 8.73023 12.5139 8.39412 12.575 8.04967C12.6361 7.70523 12.6667 7.35523 12.6667 6.99967C12.6667 5.8219 12.3445 4.75245 11.7 3.79134C11.0556 2.83023 10.1945 2.12745 9.11668 1.68301V1.98301C9.11668 2.3719 8.98334 2.71079 8.71668 2.99967C8.45001 3.28856 8.12223 3.43301 7.73334 3.43301H6.28334V4.88301C6.28334 5.0719 6.20834 5.22745 6.05834 5.34967C5.90834 5.4719 5.7389 5.53301 5.55001 5.53301H4.16668V6.99967H8.46668C8.65557 6.99967 8.81112 7.0719 8.93334 7.21634C9.05557 7.36079 9.11668 7.52745 9.11668 7.71634V9.83301H9.83334C10.1556 9.83301 10.4389 9.92745 10.6833 10.1163C10.9278 10.3052 11.0945 10.5497 11.1833 10.8497Z" fill="#AB36E2"/>
                                </svg>