<svg width="15" height="15" viewBox="0 0 512 512" fill="none" xmlns="http://www.w3.org/2000/svg">
                        <g clip-path="url(#clip0_7717_125)">
                            <path fill-rule="evenodd" clip-rule="evenodd" d="M456.836 0H55.168C24.746 0 0 24.746 0 55.168V349.406C0 379.824 24.746 404.57 55.168 404.57H182.465L224.621 488.887C231.965 503.574 243.398 512 256 512C268.602 512 280.035 503.574 287.379 488.887L329.535 404.574H456.835C487.254 404.574 512 379.828 512 349.406V55.168C512 24.746 487.254 0 456.836 0ZM256 83C239.431 83 226 96.4315 226 113V176C226 192.569 239.431 206 256 206C272.569 206 286 192.569 286 176V113C286 96.4315 272.569 83 256 83ZM285 309.5C285 325.792 271.792 339 255.5 339C239.208 339 226 325.792 226 309.5C226 293.208 239.208 280 255.5 280C271.792 280 285 293.208 285 309.5Z" fill="#ad1e1ea6"/>
                        </g>
                    </svg>