<svg width="12" height="12" viewBox="0 0 12 12" fill="none" xmlns="http://www.w3.org/2000/svg">
                                    <path d="M2.83164 5.00033C2.23276 5.00033 1.72221 4.78865 1.29999 4.36531C0.877768 3.94196 0.666656 3.43085 0.666656 2.83198C0.666656 2.2331 0.878329 1.72255 1.30167 1.30033C1.72502 0.878103 2.23613 0.666992 2.83501 0.666992C3.43388 0.666992 3.94443 0.878665 4.36666 1.30201C4.78888 1.72535 4.99999 2.23646 4.99999 2.83534C4.99999 3.43422 4.78832 3.94477 4.36497 4.36699C3.94163 4.78921 3.43052 5.00033 2.83164 5.00033ZM2.83136 4.00033C3.15489 4.00033 3.43055 3.88709 3.65832 3.66063C3.8861 3.43415 3.99999 3.15915 3.99999 2.83563C3.99999 2.51209 3.88676 2.23644 3.66029 2.00866C3.43381 1.78088 3.15881 1.66699 2.83529 1.66699C2.51176 1.66699 2.2361 1.78023 2.00832 2.00669C1.78055 2.23317 1.66666 2.50817 1.66666 2.83169C1.66666 3.15523 1.77989 3.43088 2.00636 3.65866C2.23283 3.88644 2.50783 4.00033 2.83136 4.00033ZM9.16497 11.3337C8.56609 11.3337 8.05554 11.122 7.63332 10.6986C7.2111 10.2753 6.99999 9.76419 6.99999 9.16531C6.99999 8.56643 7.21166 8.05588 7.63501 7.63366C8.05835 7.21144 8.56946 7.00033 9.16834 7.00033C9.76722 7.00033 10.2778 7.212 10.7 7.63534C11.1222 8.05869 11.3333 8.5698 11.3333 9.16868C11.3333 9.76755 11.1216 10.2781 10.6983 10.7003C10.275 11.1225 9.76385 11.3337 9.16497 11.3337ZM9.16469 10.3337C9.48822 10.3337 9.76388 10.2204 9.99166 9.99396C10.2194 9.76748 10.3333 9.49248 10.3333 9.16896C10.3333 8.84542 10.2201 8.56977 9.99362 8.34199C9.76714 8.11421 9.49214 8.00033 9.16862 8.00033C8.84509 8.00033 8.56943 8.11356 8.34166 8.34003C8.11388 8.5665 7.99999 8.8415 7.99999 9.16503C7.99999 9.48856 8.11322 9.76421 8.33969 9.99199C8.56617 10.2198 8.84117 10.3337 9.16469 10.3337ZM1.01666 10.9837C0.916656 10.8837 0.866656 10.767 0.866656 10.6337C0.866656 10.5003 0.916656 10.3837 1.01666 10.2837L10.2833 1.01699C10.3833 0.916992 10.5 0.866992 10.6333 0.866992C10.7667 0.866992 10.8833 0.916992 10.9833 1.01699C11.0833 1.11699 11.1333 1.23366 11.1333 1.36699C11.1333 1.50033 11.0833 1.61699 10.9833 1.71699L1.71666 10.9837C1.61666 11.0837 1.49999 11.1337 1.36666 11.1337C1.23332 11.1337 1.11666 11.0837 1.01666 10.9837Z" fill="#36A4E2"/>
                                </svg>