<svg width="48" height="48" viewBox="0 0 48 48" fill="none" xmlns="http://www.w3.org/2000/svg">
                                        <path fill-rule="evenodd" fill="currentColor" clip-rule="evenodd" d="M2.07454 0.126527C1.23772 0.391133 0.723122 0.821801 0.316595 1.5977L0.0942383 2.02205V23.5696V45.1172L0.310471 45.5222C0.642973 46.1447 1.13069 46.6281 1.67452 46.874L2.16884 47.0975H18.6713H35.1738L35.6129 46.8945C36.1228 46.6588 36.7273 46.0701 36.9786 45.5645C37.1259 45.2684 37.1584 44.9451 37.1806 43.5612C37.1952 42.6536 37.2287 41.85 37.2551 41.7755C37.2868 41.6861 38.1584 42.4912 39.8219 44.1461C41.2072 45.5244 42.4679 46.7148 42.6235 46.7915C44.2132 47.5741 46.1532 46.8914 46.8856 45.2917C47.0936 44.8374 47.1167 44.6782 47.0862 43.9104C47.0626 43.3164 46.9957 42.9235 46.874 42.6654C46.7578 42.4187 45.3611 40.9473 42.8365 38.4121L38.9765 34.536L39.404 33.6453C39.8594 32.6965 40.2445 31.4918 40.42 30.4675C40.5556 29.6758 40.5537 27.4916 40.4168 26.6675C40.0605 24.5231 39.1469 22.5945 37.5275 20.5682L37.2013 20.1602V14.8173V9.47458L32.6042 4.87746C30.0758 2.34899 27.8733 0.216018 27.7099 0.137466C27.4489 0.0119523 25.8949 -0.00464447 14.9322 0.000919228C5.14466 0.00582283 2.37036 0.0329812 2.07454 0.126527ZM26.375 5.29898C26.4033 8.63616 26.4091 8.72857 26.6209 9.18885C26.8955 9.78539 27.312 10.2213 27.9127 10.541L28.3842 10.792L31.8969 10.8199L35.4096 10.8477V14.7622V18.6767L35.0088 18.4311C33.7977 17.6888 32.3773 17.12 30.9775 16.8172C29.8534 16.5739 27.3803 16.5706 26.2625 16.8108C23.7894 17.3426 21.9499 18.3424 20.1734 20.1201C18.2266 22.0685 17.2303 24.021 16.7792 26.7724C16.5371 28.2484 16.6614 30.4181 17.063 31.7266C17.1425 31.9859 17.2081 32.2087 17.2087 32.2216C17.2092 32.2345 14.6444 32.2452 11.509 32.2452C7.28999 32.2452 5.74403 32.2745 5.561 32.3579C5.01538 32.6065 4.89118 33.3318 5.32062 33.7613L5.59627 34.0369H11.7656H17.9349L18.4115 34.8149C20.1452 37.6443 23.1128 39.6787 26.447 40.3234C27.5401 40.5347 29.8122 40.5288 30.836 40.3119C31.8341 40.1004 32.8271 39.7644 33.8006 39.3086L34.5964 38.9361L35.0071 39.3391L35.4179 39.7421L35.3902 42.2729L35.3624 44.8037L35.0978 45.0312L34.8332 45.2586H18.6318H2.43033L2.18166 45.01L1.93309 44.7614V23.5696V2.37785L2.18166 2.12918L2.43033 1.8806H14.3881H26.346L26.375 5.29898ZM33.9951 8.98035C33.9951 9.02194 32.8245 9.04344 31.394 9.02807L28.7928 9.00025L28.5179 8.69227L28.2428 8.38428V5.76953V3.15478L31.1189 6.0298C32.7008 7.61102 33.9951 8.93877 33.9951 8.98035ZM5.52686 6.82154C4.99887 7.11416 4.9042 7.75521 5.32016 8.22077L5.59523 8.52875L14.6073 8.55421C24.6364 8.5825 24.1589 8.61108 24.4286 7.96559C24.6054 7.54237 24.5267 7.22515 24.1703 6.92537L23.8906 6.6899L14.8214 6.6932C7.47463 6.69594 5.70942 6.72027 5.52686 6.82154ZM5.33789 13.3759C5.11298 13.586 5.04499 13.73 5.04499 13.9961C5.04499 14.4774 5.46066 14.894 5.94084 14.894C6.41998 14.894 6.83669 14.4773 6.83669 13.9982C6.83669 13.7431 6.76512 13.582 6.56105 13.3779C6.18612 13.003 5.73781 13.0022 5.33789 13.3759ZM9.41721 13.2125C8.92506 13.4508 8.8366 14.2279 9.25416 14.6454L9.50283 14.894H16.7073C24.6818 14.894 24.2576 14.9272 24.4688 14.2869C24.5954 13.9035 24.4852 13.5787 24.1351 13.3033L23.8795 13.1023L16.749 13.1087C12.0447 13.1129 9.54998 13.1482 9.41721 13.2125ZM29.7044 18.4809C32.0569 18.7477 34.3353 19.8974 35.9754 21.6452C38.1173 23.9278 39.0931 27.1623 38.5619 30.2178C37.5182 36.2202 31.5938 39.9258 25.7492 38.2321C24.0816 37.7489 22.7768 36.971 21.4888 35.6924C18.8332 33.056 17.8417 29.3084 18.8654 25.776C19.839 22.4165 22.5115 19.7467 25.8381 18.8107C27.2479 18.414 28.3132 18.3231 29.7044 18.4809ZM5.7346 19.5226C4.97483 19.7469 4.82376 20.6265 5.4568 21.1393C5.64134 21.2888 6.04843 21.3023 10.3827 21.3043L15.1076 21.3064L15.3533 21.0787C15.8122 20.6534 15.7833 20.0323 15.2874 19.6619C15.0339 19.4725 14.9108 19.4671 10.5312 19.4508C7.9432 19.4411 5.90755 19.4715 5.7346 19.5226ZM27.2099 20.5591C24.6037 21.0213 22.2778 22.8353 21.2143 25.2348C20.3785 27.1208 20.2954 29.3952 20.9926 31.3022C22.2695 34.7946 25.7466 36.9637 29.4522 36.5798C31.2527 36.3932 32.8161 35.6619 34.1709 34.3723C38.1704 30.5656 37.2664 24.037 32.3754 21.4061C31.2828 20.8184 30.1946 20.5383 28.8557 20.5001C28.2334 20.4823 27.4927 20.5089 27.2099 20.5591ZM30.4117 22.5518C31.9717 23.0246 33.4776 24.3069 34.1661 25.7488C35.0399 27.5791 35.0622 29.442 34.2309 31.1924C32.7118 34.3913 29.016 35.6717 25.793 34.1157C24.3418 33.4152 23.0791 31.9211 22.595 30.3318C22.142 28.8444 22.2683 27.3159 22.964 25.8695C23.7311 24.2746 24.9971 23.1569 26.6868 22.5829C27.7569 22.2194 29.2733 22.2068 30.4117 22.5518ZM28.0246 24.646C27.7139 24.934 27.6235 25.2875 27.7702 25.6415C27.9231 26.0107 28.1724 26.1532 28.8936 26.2835C29.2283 26.3439 29.6612 26.5009 29.8652 26.636C30.3388 26.9493 30.7653 27.6253 30.839 28.179C30.9578 29.0732 31.2251 29.4162 31.8034 29.4162C32.5262 29.4162 32.806 28.9369 32.6677 27.9355C32.4461 26.3304 31.2244 24.9842 29.6068 24.5629C28.7839 24.3485 28.3193 24.3729 28.0246 24.646ZM5.64738 25.9252C5.35052 26.0452 5.04499 26.4822 5.04499 26.787C5.04499 26.9506 5.15258 27.1762 5.32006 27.3637L5.59523 27.6717L9.94435 27.698C14.6898 27.7267 14.7882 27.7169 15.0277 27.1912C15.2448 26.7148 15.058 26.1455 14.6191 25.9455C14.326 25.812 5.97441 25.7931 5.64738 25.9252ZM41.5033 39.6242C43.428 41.5562 45.0721 43.2418 45.1569 43.3701C45.2469 43.506 45.3111 43.7954 45.3111 44.0648C45.3111 44.4753 45.2705 44.5669 44.945 44.8925C44.6194 45.2181 44.5277 45.2586 44.1172 45.2586C43.8479 45.2586 43.5585 45.1944 43.4225 45.1044C43.163 44.9329 36.164 37.983 36.164 37.8969C36.164 37.8081 37.8058 36.1418 37.909 36.126C37.9612 36.118 39.5786 37.6922 41.5033 39.6242ZM5.32062 38.9332C4.94569 39.3082 4.94494 39.7565 5.31855 40.1564L5.59212 40.4493H9.80402C12.5124 40.4493 14.0806 40.4146 14.1973 40.3522C14.4285 40.2285 14.6636 39.7768 14.6636 39.4566C14.6636 39.3086 14.5527 39.098 14.388 38.9332L14.1123 38.6576H9.85429H5.59627L5.32062 38.9332ZM16.9195 38.9332C16.5446 39.3082 16.5438 39.7565 16.9175 40.1564C17.1276 40.3813 17.2716 40.4493 17.5377 40.4493C18.019 40.4493 18.4356 40.0336 18.4356 39.5535C18.4356 39.0743 18.0189 38.6576 17.5397 38.6576C17.2847 38.6576 17.1236 38.7292 16.9195 38.9332Z"/>
                                    </svg>