<svg width="44" height="43" viewBox="0 0 44 43" fill="none" xmlns="http://www.w3.org/2000/svg">
                                    <path fill="currentColor" d="M42.3781 37.4482H37.5337V3.53732C37.5337 1.62931 35.9815 0.0770264 34.0734 0.0770264H3.62289C1.71488 0.0770264 0.162598 1.62931 0.162598 3.53732V4.92143C0.162598 5.30414 0.471948 5.61349 0.854656 5.61349H5.69906V39.5243C5.69906 41.4324 7.25135 42.9846 9.15935 42.9846H39.6099C41.5179 42.9846 43.0702 41.4324 43.0702 39.5243V38.1402C43.0702 37.7575 42.7609 37.4482 42.3781 37.4482ZM1.54671 3.53732C1.54671 2.39265 2.47822 1.46114 3.62289 1.46114H31.3066C30.8713 2.0397 30.6132 2.75875 30.6132 3.53732V4.22938H1.54671V3.53732ZM11.2355 38.1402V39.5243C11.2355 40.669 10.304 41.6005 9.15935 41.6005C8.01469 41.6005 7.08318 40.669 7.08318 39.5243V5.61349H31.3052C31.6879 5.61349 31.9973 5.30414 31.9973 4.92143V3.53732C31.9973 2.39265 32.9288 1.46114 34.0734 1.46114C35.2181 1.46114 36.1496 2.39265 36.1496 3.53732V37.4482H11.9276C11.5449 37.4482 11.2355 37.7575 11.2355 38.1402ZM41.6861 39.5243C41.6861 40.669 40.7546 41.6005 39.6099 41.6005H11.9262C12.3615 41.022 12.6196 40.3029 12.6196 39.5243V38.8323H41.6861V39.5243Z"/>
                                    <path fill="currentColor" d="M14.6958 19.4549C18.1305 19.4549 20.9243 16.6611 20.9243 13.2264C20.9243 12.4181 20.7714 11.6319 20.471 10.89L19.188 11.4104C19.4219 11.9862 19.5402 12.5973 19.5402 13.2264C19.5402 15.897 17.3665 18.0708 14.6958 18.0708C12.0252 18.0708 9.8514 15.897 9.8514 13.2264C9.8514 10.5557 12.0252 8.38198 14.6958 8.38198C15.518 8.38198 16.3291 8.59167 17.0419 8.98684L17.7139 7.77712C16.7962 7.26777 15.7526 6.99786 14.6958 6.99786C11.2611 6.99786 8.46729 9.7917 8.46729 13.2264C8.46729 16.6611 11.2611 19.4549 14.6958 19.4549Z"/>
                                    <path fill="currentColor" d="M12.417 12.7372L11.4385 13.7158L14.2067 16.484C14.3368 16.6148 14.5133 16.6868 14.696 16.6868C14.723 16.6868 14.75 16.6854 14.7763 16.6819C14.9874 16.657 15.1742 16.538 15.2849 16.3574L20.8214 7.36061L19.6428 6.63464L14.5652 14.8854L12.417 12.7372Z"/>
                                    <path fill="currentColor" d="M8.4668 20.8386H9.85091V22.2227H8.4668V20.8386Z"/>
                                    <path fill="currentColor" d="M11.2354 20.8386H34.7653V22.2227H11.2354V20.8386Z"/>
                                    <path fill="currentColor" d="M33.3813 23.6074H34.7655V24.9915H33.3813V23.6074Z"/>
                                    <path fill="currentColor" d="M8.4668 23.6074H31.9968V24.9915H8.4668V23.6074Z"/>
                                    <path fill="currentColor" d="M8.4668 26.3755H9.85091V27.7596H8.4668V26.3755Z"/>
                                    <path fill="currentColor" d="M11.2354 26.3755H34.7653V27.7596H11.2354V26.3755Z"/>
                                    <path fill="currentColor" d="M33.3813 29.1436H34.7655V30.5277H33.3813V29.1436Z"/>
                                    <path fill="currentColor" d="M8.46729 29.1436H31.9973V30.5277H8.46729V29.1436Z"/>
                                    <path fill="currentColor" d="M8.46729 31.9117H9.8514V33.2959H8.46729V31.9117Z"/>
                                    <path fill="currentColor" d="M11.2354 31.9117H34.7653V33.2959H11.2354V31.9117Z"/>
                                    <path fill="currentColor" d="M33.3813 34.68H34.7655V36.0641H33.3813V34.68Z"/>
                                    <path fill="currentColor" d="M8.46729 34.68H31.9973V36.0641H8.46729V34.68Z"/>
                                </svg>