<svg width="35" height="45" viewBox="0 0 35 45" fill="none" xmlns="http://www.w3.org/2000/svg">
                                    <path fill="currentColor" d="M13.2125 43.958C12.8676 43.958 12.5417 43.7503 12.4075 43.41C12.2322 42.9655 12.4505 42.4632 12.8949 42.2879C14.4382 41.6793 15.2227 40.8186 16.0533 39.9073C17.0348 38.8305 18.1472 37.61 20.4959 36.9196C22.2189 36.4131 23.6244 36.467 24.7539 36.5102C26.1013 36.5619 26.7194 36.5591 27.2522 35.9514C27.5352 35.6287 27.58 35.3973 27.6793 34.7144C27.7899 33.9536 27.9413 32.9116 28.6382 31.2279C29.0408 30.2553 29.3874 29.6489 29.6403 29.2061C29.9672 28.6342 30.0894 28.4202 30.1079 27.8958C30.1311 27.237 29.9536 26.9197 29.6596 26.3939C29.3302 25.8047 28.9202 25.0715 28.7344 23.749C28.5849 22.6852 28.6958 22.0203 28.7848 21.486C28.874 20.9509 28.9383 20.5644 28.7505 19.7908C28.5804 19.0909 28.3351 18.6292 28.1187 18.2219C27.8195 17.6593 27.4806 17.0215 27.8124 16.2327C28.2028 15.3041 29.1001 15.1376 29.821 15.0037C30.3895 14.8982 30.9773 14.7891 31.541 14.3826C32.8919 13.4083 33.6006 11.1321 33.0279 9.60687C32.879 9.21032 32.7121 9.05893 32.3466 8.72717C31.9011 8.32309 31.2911 7.76962 30.502 6.54917C30.0473 5.84569 29.8167 5.36255 29.6484 5.00977C29.444 4.58147 29.4184 4.54461 29.258 4.446C28.8692 4.20732 28.5236 4.27402 27.8405 4.43475C27.0883 4.61192 26.1521 4.83208 25.0202 4.37437C24.0053 3.9638 23.521 3.27486 23.1675 2.77181C22.8315 2.29386 22.7167 2.16782 22.4449 2.1243C22.2317 2.09031 22.1383 2.13166 21.6118 2.49499C21.1475 2.81541 20.5117 3.25427 19.4689 3.66189C18.2754 4.12834 17.4338 4.20948 16.8192 4.26874C16.174 4.33094 16.0816 4.3594 15.9214 4.54574C15.6635 4.84583 15.6375 5.20969 15.614 5.82692C15.5854 6.57737 15.5497 7.51122 14.7772 8.35285C14.582 8.56549 14.3705 8.72414 14.1582 8.84422C14.3076 8.8732 14.4662 8.89292 14.6306 8.89872C15.2752 8.92164 15.7092 8.68245 16.1294 8.45139C16.5892 8.19852 17.2188 7.85241 17.8999 8.24766C18.5709 8.63738 18.8848 9.59666 18.7614 10.8797C18.6395 12.146 18.0535 13.7788 16.8028 14.2131C16.1039 14.4559 15.5588 14.2096 15.1609 14.0297C14.8604 13.8938 14.6432 13.7955 14.3137 13.8431C13.9498 13.8952 13.7923 14.0629 13.4708 14.4373C13.1308 14.8334 12.6651 15.3759 11.7961 15.5704C10.7836 15.7967 10.0625 15.3825 9.42593 15.017C8.84114 14.6811 8.28818 14.3661 7.35814 14.3886C7.02508 14.3976 6.46814 14.4125 6.29695 14.6266C6.22852 14.7122 6.22497 14.8555 6.23328 15.162C6.24461 15.5832 6.26174 16.2199 5.76735 16.7493C5.43767 17.1024 5.02944 17.2517 4.63107 17.3045C4.7392 17.349 4.85339 17.3836 4.97165 17.4035C5.42495 17.4796 5.83655 17.3009 6.23475 17.1278C6.71772 16.9179 7.44758 16.6008 8.08895 17.1276C8.13238 17.1632 8.17217 17.203 8.2079 17.2464C8.58187 17.7009 8.60229 18.4163 8.27416 19.5664C8.07822 20.2529 7.75996 21.0589 7.4821 21.572C7.47752 21.5806 7.47276 21.5889 7.46791 21.5973C7.14005 22.157 6.84367 22.4661 6.62715 22.6917C6.41935 22.9082 6.37376 22.96 6.3261 23.1296C6.24374 23.4225 6.2466 23.7444 6.287 23.894C6.4306 23.8687 6.67801 23.7851 6.86859 23.7208C7.55771 23.4881 8.50142 23.1692 9.67204 23.3931C10.7621 23.6012 11.8675 24.2677 12.3601 25.0138C12.67 25.4833 12.6695 25.8814 12.6146 26.1328C12.4402 26.9306 11.6799 27.0727 11.1767 27.1667C10.7957 27.2379 10.3639 27.3186 9.92585 27.5788C9.13846 28.0464 8.699 29.0789 7.78003 31.3696C7.41082 32.2899 7.18581 32.9599 7.02145 33.4492C6.68813 34.4419 6.50448 34.9887 5.78378 35.4917C4.75434 36.2103 3.71789 36.0923 2.96087 36.0065C2.65965 35.9721 2.24709 35.9253 2.16949 36.0041C2.09787 36.0766 1.98428 36.3411 2.01231 36.8729C2.0823 38.2039 2.96173 40.214 4.50702 41.4809C4.89327 41.7976 5.32451 42.0667 5.78889 42.281C6.22272 42.4811 6.41217 42.995 6.21208 43.4288C6.0119 43.8626 5.49805 44.052 5.06413 43.8519C4.46636 43.5762 3.90985 43.2287 3.41001 42.8189C1.38695 41.1603 0.371693 38.6211 0.284493 36.9639C0.235098 36.024 0.461142 35.2718 0.938232 34.7885C1.60676 34.1112 2.46596 34.2088 3.1562 34.2874C3.77006 34.3571 4.30018 34.4174 4.79362 34.073C5.02494 33.9115 5.07442 33.8127 5.38135 32.8985C5.55238 32.3893 5.78655 31.6918 6.17419 30.7254C7.13676 28.3262 7.71775 26.8779 9.04235 26.0912C9.5537 25.7876 10.0483 25.6386 10.4509 25.5481C10.1692 25.3614 9.78502 25.1761 9.34746 25.0925C8.62391 24.9544 8.01291 25.1606 7.42206 25.3602C6.74134 25.59 5.89417 25.876 5.17313 25.2576C4.43426 24.6237 4.4353 23.4629 4.66057 22.6614C4.8271 22.069 5.1201 21.7635 5.37867 21.4941C5.55938 21.3056 5.74624 21.1109 5.96761 20.7354C6.26053 20.1902 6.53986 19.3952 6.68182 18.8182C6.18293 19.0243 5.50229 19.2472 4.6847 19.1097C3.5114 18.9124 2.57634 18.0725 2.20418 17.3758C1.91032 16.8256 1.98272 16.412 2.09518 16.1621C2.4323 15.4127 3.25404 15.5057 3.74497 15.5613C3.93399 15.5826 4.36817 15.632 4.49603 15.5709C4.51178 15.5003 4.50719 15.3267 4.50399 15.2086C4.49248 14.7813 4.47518 14.1356 4.94552 13.5469C5.61847 12.7047 6.72005 12.6751 7.31177 12.6593C8.72876 12.6193 9.63008 13.1391 10.288 13.5168C10.8619 13.8465 11.0921 13.9553 11.4185 13.8822C11.7138 13.8161 11.8669 13.65 12.1584 13.3106C12.5328 12.8744 13.0456 12.2772 14.0685 12.1306C14.8969 12.0123 15.4848 12.2776 15.8738 12.4534C16.0952 12.5534 16.1944 12.5932 16.2354 12.579C16.3961 12.5231 16.6548 12.2082 16.8427 11.6484C17.0662 10.9824 17.0871 10.3065 17.0275 9.93248C17.0053 9.94468 16.9836 9.95653 16.9632 9.96778C16.4566 10.2464 15.691 10.6673 14.5704 10.6282C13.4503 10.589 12.2486 10.109 11.7128 9.48697C11.3964 9.11966 11.3613 8.76913 11.3876 8.53971C11.4798 7.73415 12.2883 7.59262 12.6335 7.53216C12.9552 7.47593 13.2877 7.41762 13.5028 7.18336C13.8293 6.82764 13.8597 6.43126 13.8852 5.76134C13.912 5.06176 13.9452 4.19114 14.6096 3.4182C15.2417 2.68306 15.9593 2.61385 16.6533 2.54707C17.1953 2.49482 17.8698 2.42976 18.8391 2.05103C19.6946 1.71659 20.2128 1.35897 20.6292 1.07159C21.2015 0.676686 21.7931 0.268283 22.7189 0.416471C23.7417 0.580403 24.2083 1.24409 24.5831 1.7775C24.8873 2.21012 25.1274 2.55183 25.6692 2.77095C26.2912 3.02269 26.8256 2.8969 27.4443 2.75114C28.2041 2.57233 29.1498 2.34966 30.1634 2.97217C30.7711 3.34519 30.9745 3.77158 31.21 4.2652C31.3663 4.5928 31.5609 5.00051 31.9551 5.61022C32.6213 6.64069 33.1136 7.08733 33.5092 7.44625C33.9424 7.83934 34.3517 8.21064 34.6478 8.99907C35.4929 11.2498 34.5338 14.358 32.5533 15.7863C31.6749 16.4198 30.786 16.5848 30.1369 16.7053C29.8805 16.7529 29.4941 16.8246 29.4104 16.897C29.4102 16.8977 29.4094 16.8994 29.4083 16.902C29.4248 16.9929 29.5524 17.233 29.6467 17.4104C29.8846 17.8582 30.2106 18.4715 30.4321 19.3829C30.7035 20.5002 30.591 21.1753 30.4917 21.7709C30.4115 22.2528 30.3356 22.708 30.4481 23.5087C30.5889 24.5105 30.8844 25.0391 31.1702 25.5501C31.518 26.1721 31.8776 26.8153 31.8374 27.9572C31.804 28.9084 31.5123 29.4188 31.143 30.0651C30.9001 30.4901 30.5979 31.019 30.2372 31.8904C29.6228 33.3747 29.4947 34.2559 29.3918 34.9639C29.2822 35.7182 29.1875 36.3695 28.5535 37.0926C27.4548 38.3456 26.111 38.2945 24.6879 38.2397C23.6322 38.199 22.4357 38.1533 20.9842 38.5801C19.1001 39.134 18.2808 40.0327 17.3324 41.0734C16.4486 42.0431 15.4469 43.1422 13.5299 43.898C13.4253 43.9385 13.318 43.958 13.2125 43.958Z"/>
                                    <path fill="currentColor" d="M9.31917 44.6772C9.79694 44.6772 10.1842 44.2899 10.1842 43.8121C10.1842 43.3343 9.79694 42.947 9.31917 42.947C8.84141 42.947 8.4541 43.3343 8.4541 43.8121C8.4541 44.2899 8.84141 44.6772 9.31917 44.6772Z"/>
                                    <path fill="currentColor" d="M20.3033 25.7829C18.6288 25.7829 17.2666 24.4207 17.2666 22.7463C17.2666 21.0719 18.6288 19.7096 20.3033 19.7096C21.9777 19.7096 23.3399 21.0718 23.3399 22.7463C23.3399 24.4207 21.9777 25.7829 20.3033 25.7829ZM20.3033 21.4397C19.5828 21.4397 18.9967 22.0258 18.9967 22.7463C18.9967 23.4667 19.5828 24.0528 20.3033 24.0528C21.0237 24.0528 21.6098 23.4667 21.6098 22.7463C21.6098 22.0258 21.0236 21.4397 20.3033 21.4397Z"/>
                                    <path fill="currentColor" d="M20.3035 34.8509C19.9944 34.8509 19.7088 34.686 19.5543 34.4184L14.6842 25.9831C13.6502 24.1923 13.5233 22.0802 14.3362 20.1886C15.3643 17.7963 17.7066 16.2504 20.3035 16.2504C21.9224 16.2504 23.4653 16.841 24.648 17.9134C25.7749 18.9352 26.5155 20.3248 26.7337 21.8263C26.9428 23.2648 26.6623 24.7022 25.9228 25.9832L21.0527 34.4185C20.8981 34.686 20.6125 34.8509 20.3035 34.8509ZM20.3035 17.9805C18.3696 17.9805 16.6921 19.0884 15.9258 20.8718C15.3306 22.2569 15.4241 23.8045 16.1825 25.1181L20.3035 32.2558L24.4244 25.1181C24.9676 24.1773 25.1741 23.125 25.0216 22.075C24.7259 20.0402 23.0104 17.9805 20.3035 17.9805Z"/>
                                </svg>