<svg width="15" height="15" viewBox="0 0 10 10" fill="none" xmlns="http://www.w3.org/2000/svg">
                        <path d="M8.99631 7.0502V8.3002C8.99678 8.41625 8.97301 8.53111 8.92652 8.63743C8.88003 8.74376 8.81185 8.8392 8.72634 8.91765C8.64083 8.9961 8.53988 9.05582 8.42996 9.093C8.32003 9.13017 8.20355 9.14398 8.08798 9.13354C6.80582 8.99422 5.57423 8.5561 4.49214 7.85437C3.4854 7.21465 2.63187 6.36111 1.99214 5.35437C1.28797 4.26737 0.849745 3.02978 0.712977 1.74187C0.702564 1.62665 0.716258 1.51052 0.753185 1.40088C0.790112 1.29124 0.849465 1.19049 0.927463 1.10505C1.00546 1.0196 1.1004 0.951332 1.20622 0.904587C1.31205 0.857843 1.42645 0.833645 1.54214 0.833536H2.79214C2.99435 0.831546 3.19039 0.903153 3.34371 1.03501C3.49703 1.16686 3.59718 1.34997 3.62548 1.5502C3.67824 1.95023 3.77608 2.34301 3.91714 2.72104C3.9732 2.87017 3.98534 3.03225 3.9521 3.18807C3.91887 3.34389 3.84167 3.48692 3.72964 3.6002L3.20048 4.12937C3.79362 5.17251 4.65733 6.03622 5.70048 6.62937L6.22964 6.1002C6.34293 5.98818 6.48596 5.91097 6.64178 5.87774C6.7976 5.84451 6.95967 5.85664 7.10881 5.9127C7.48684 6.05377 7.87962 6.15161 8.27964 6.20437C8.48205 6.23292 8.66689 6.33487 8.79903 6.49083C8.93117 6.64678 9.00138 6.84586 8.99631 7.0502Z" stroke="#FF900D" stroke-linecap="round" stroke-linejoin="round"/>
                    </svg>