<svg width="47" height="47" viewBox="0 0 47 47" fill="none" xmlns="http://www.w3.org/2000/svg">
                                <path d="M12.7849 5.55951C11.7378 5.55951 10.7459 5.55951 9.60703 5.55951C9.60703 5.94526 9.60703 6.31264 9.60703 6.66165C9.60703 15.3869 9.60703 24.1122 9.60703 32.8375C9.60703 33.1498 9.66214 33.4804 9.57029 33.7376C9.47845 33.9764 9.18454 34.3254 9.00085 34.307C8.74369 34.2703 8.46815 34.0131 8.30283 33.7559C8.19262 33.5723 8.26609 33.2783 8.26609 33.0395C8.26609 23.9836 8.26609 14.9093 8.26609 5.85341C8.26609 4.45737 8.52326 4.18183 9.9193 4.18183C11.297 4.18183 12.6563 4.18183 14.0891 4.18183C14.0891 3.68587 14.0891 3.28175 14.0891 2.80416C12.2705 2.80416 10.4704 2.74905 8.67021 2.82252C7.73339 2.85926 7.07211 3.61239 6.90679 4.54921C6.85168 4.89822 6.85168 5.28397 6.85168 5.65135C6.85168 18.0137 6.85168 30.376 6.85168 42.7568C6.85168 45.0345 7.47623 45.6591 9.71725 45.6591C18.8099 45.6591 27.9026 45.6591 36.9952 45.6591C39.1811 45.6591 39.8241 44.9978 39.8241 42.7935C39.8241 30.3944 39.8241 17.9953 39.8241 5.59625C39.8241 3.46544 39.1444 2.76742 37.032 2.76742C36.2605 2.76742 35.489 2.82252 34.7358 2.73068C34.4419 2.69394 34.2031 2.30819 33.9276 2.08776C34.2031 1.86734 34.4603 1.48159 34.7358 1.46322C35.8012 1.38974 36.885 1.40811 37.9504 1.44485C39.7322 1.51832 41.1099 2.91437 41.1466 4.69616C41.1834 6.34937 41.165 8.00259 41.165 9.6558C41.165 20.8058 41.165 31.9374 41.165 43.0874C41.165 45.7142 39.8424 47 37.1973 47C27.9209 47 18.6446 47 9.36823 47C6.85168 47 5.51074 45.6591 5.51074 43.1609C5.51074 30.523 5.51074 17.8851 5.51074 5.22887C5.51074 2.78579 6.81494 1.46322 9.27639 1.44485C10.3785 1.44485 11.4807 1.42648 12.5828 1.44485C13.4829 1.46322 14.3462 1.55506 14.9892 0.599874C15.2279 0.232493 15.9443 0.0488036 16.4587 0.0304346C21.0509 -0.00630342 25.6432 -0.00630314 30.2354 0.0120659C31.5947 0.0120659 32.4948 0.967254 32.5316 2.34493C32.5499 2.91437 32.5316 3.50218 32.5316 4.18183C34.0194 4.18183 35.4155 4.18183 36.8115 4.18183C38.1525 4.18183 38.428 4.47574 38.428 5.7983C38.428 15.8462 38.428 25.8756 38.4096 35.9235C38.4096 36.3827 38.1892 36.9521 37.8586 37.2828C35.8196 39.3952 33.7439 41.4709 31.6315 43.5099C31.2825 43.8405 30.6763 44.0793 30.1987 44.0793C23.4389 44.1161 16.6607 44.0977 9.90094 44.0977C8.56 44.0977 8.28446 43.8222 8.28446 42.4996C8.28446 40.6076 8.28446 38.6972 8.28446 36.8052C8.28446 36.346 8.24773 35.8133 8.90901 35.7949C9.64377 35.7582 9.60703 36.3092 9.60703 36.8236C9.60703 38.7523 9.60703 40.6811 9.60703 42.6833C16.4036 42.6833 23.145 42.6833 30.015 42.6833C30.0334 42.371 30.0701 42.022 30.0701 41.673C30.0885 40.7545 30.0517 39.8361 30.1068 38.9176C30.2354 37.1358 31.5396 35.8684 33.3214 35.7765C34.3317 35.7214 35.342 35.7398 36.3523 35.7582C36.9034 35.7765 37.1605 35.5928 37.0871 35.0234C37.0687 34.7846 37.0871 34.5274 37.0871 34.2886C37.0871 25.1041 37.0871 15.9196 37.0871 6.73512C37.0871 6.36774 37.0871 6.01873 37.0871 5.57788C35.9849 5.57788 34.9746 5.57788 33.9092 5.57788C33.9092 6.38611 33.9276 7.19435 33.9092 8.00259C33.8541 9.39863 33.1194 10.1518 31.705 10.1518C26.1391 10.1701 20.555 10.1701 14.9892 10.1518C13.5931 10.1518 12.8583 9.39863 12.8032 7.98422C12.7481 7.21272 12.7849 6.42285 12.7849 5.55951ZM23.2368 5.66972C25.4411 5.66972 27.6454 5.66972 29.8497 5.66972C30.86 5.66972 31.1171 5.41255 31.1539 4.439C31.1723 3.79608 31.1539 3.15317 31.1539 2.51025C31.1539 1.75712 30.8049 1.37137 30.0334 1.38974C29.3537 1.38974 28.6924 1.38974 28.0128 1.38974C24.3022 1.38974 20.6101 1.38974 16.8995 1.38974C15.7239 1.38974 15.5219 1.5918 15.5035 2.78579C15.5035 3.24501 15.5035 3.70424 15.5035 4.16346C15.5219 5.44929 15.7239 5.66972 16.9914 5.66972C19.0854 5.66972 21.1611 5.66972 23.2368 5.66972ZM14.383 5.7983C14.3095 5.85341 14.236 5.90852 14.1625 5.96363C14.1625 6.68002 14.0707 7.43315 14.1993 8.13117C14.2544 8.4067 14.7687 8.79245 15.081 8.79245C20.5917 8.82919 26.1024 8.82919 31.6131 8.79245C31.907 8.79245 32.4213 8.49855 32.4581 8.29649C32.5499 7.50662 32.4948 6.69839 32.4948 5.90852C32.4213 5.87178 32.3662 5.83504 32.2928 5.7983C31.6131 7.01066 30.5293 7.01066 29.3905 7.01066C25.3493 6.99229 21.3081 6.99229 17.2669 7.01066C16.128 7.02903 15.0626 6.97392 14.383 5.7983ZM31.411 41.4342C32.8622 40.0014 34.3134 38.5503 35.7645 37.0991C35.0481 37.0991 34.2582 37.0807 33.4867 37.0991C32.2744 37.1358 31.4478 37.9624 31.411 39.1932C31.3927 39.983 31.411 40.7362 31.411 41.4342Z" fill="currentColor"/>
                                <path d="M19.4895 28.9981C19.4895 28.392 19.4161 27.8225 19.5263 27.2898C19.5814 27.0143 19.9304 26.7755 20.1508 26.5367C20.3896 26.7755 20.7937 26.9775 20.8305 27.2347C20.9223 27.896 20.8856 28.5756 20.8121 29.2369C20.7203 30.0084 20.1692 30.4309 19.4344 30.4493C17.7629 30.5044 16.0729 30.5044 14.4013 30.4493C13.4829 30.4309 12.9134 29.7696 12.9134 28.8144C12.8951 27.2347 12.8951 25.6366 12.9134 24.0569C12.9318 23.1568 13.4461 22.5322 14.3278 22.4588C15.0626 22.4037 15.7974 22.3669 16.5138 22.4771C16.8077 22.5139 17.0465 22.918 17.3036 23.1568C17.0281 23.3956 16.7893 23.7813 16.4954 23.8181C15.8157 23.9099 15.0993 23.8548 14.3278 23.8548C14.3278 25.5815 14.3278 27.2347 14.3278 28.9798C15.9811 28.9981 17.671 28.9981 19.4895 28.9981Z" fill="currentColor"/>
                                <path d="M14.2912 33.2417C14.2912 34.9868 14.2912 36.64 14.2912 38.3851C15.9995 38.3851 17.6894 38.3851 19.4896 38.3851C19.4896 37.8156 19.4161 37.2645 19.5263 36.7502C19.5814 36.4379 19.9488 36.1991 20.1693 35.9236C20.4081 36.1808 20.6468 36.4563 20.8673 36.7319C20.904 36.787 20.8856 36.9155 20.8856 37.0074C20.9591 39.5607 20.6652 39.8729 18.1303 39.8729C16.973 39.8729 15.8158 39.8913 14.6402 39.8729C13.4646 39.8546 12.8951 39.2851 12.8951 38.1279C12.8768 36.6033 12.8951 35.0786 12.8951 33.554C12.8951 32.7641 13.2074 32.1029 13.9973 31.9926C14.8973 31.8457 15.8158 31.8824 16.7343 31.9375C16.9363 31.9559 17.3221 32.4335 17.267 32.5988C17.1935 32.8744 16.8445 33.2234 16.5689 33.2417C15.8158 33.2968 15.081 33.2417 14.2912 33.2417Z" fill="currentColor"/>
                                <path d="M14.2727 14.4869C14.2727 16.2503 14.2727 17.9035 14.2727 19.6302C15.9811 19.6302 17.6526 19.6302 19.4712 19.6302C19.4712 19.0791 19.3977 18.4913 19.5079 17.9586C19.563 17.6647 19.9304 17.4259 20.1692 17.1504C20.3896 17.4076 20.6284 17.628 20.8305 17.9035C20.904 18.0137 20.8489 18.1974 20.8489 18.3628C20.8856 20.8058 20.5917 21.1181 18.1486 21.1181C17.0097 21.1181 15.8892 21.1181 14.7503 21.1181C13.4094 21.0997 12.84 20.567 12.84 19.2445C12.84 17.7749 12.84 16.3054 12.84 14.8359C12.84 13.7338 13.4094 13.1276 14.4932 13.0725C15.1361 13.0357 15.779 12.999 16.4219 13.0908C16.7342 13.146 16.973 13.5133 17.2485 13.7338C16.973 13.9726 16.7158 14.3216 16.3852 14.4502C16.0729 14.5787 15.6688 14.4869 15.3014 14.4869C14.9891 14.4869 14.6585 14.4869 14.2727 14.4869Z" fill="currentColor"/>
                                <path d="M28.2883 13.0723C29.7578 13.0723 31.2273 13.0723 32.6785 13.0723C33.1928 13.0723 33.7439 13.0906 33.7623 13.7519C33.7806 14.4867 33.1928 14.505 32.6601 14.505C29.7027 14.505 26.7453 14.505 23.7695 14.505C23.2368 14.505 22.6123 14.505 22.6306 13.7887C22.6306 13.0723 23.2552 13.0906 23.7879 13.0906C25.2942 13.0723 26.8004 13.0723 28.2883 13.0723Z" fill="currentColor"/>
                                <path d="M28.2884 15.828C29.7579 15.828 31.2274 15.828 32.6786 15.828C33.1929 15.828 33.744 15.8464 33.7623 16.5076C33.7807 17.2424 33.1929 17.2424 32.6418 17.2424C29.6844 17.2424 26.727 17.2424 23.7512 17.2424C23.2185 17.2424 22.594 17.224 22.6123 16.5076C22.6307 15.7912 23.2369 15.8096 23.7696 15.8096C25.2942 15.828 26.8005 15.828 28.2884 15.828Z" fill="currentColor"/>
                                <path d="M28.1781 33.2416C26.7086 33.2416 25.2391 33.2416 23.7879 33.2416C23.2369 33.2416 22.649 33.2232 22.649 32.5252C22.649 31.8639 23.2185 31.8271 23.7328 31.8271C26.727 31.8271 29.7211 31.8271 32.7153 31.8271C33.2112 31.8271 33.7807 31.8455 33.799 32.5068C33.8174 33.2416 33.2112 33.2416 32.6785 33.2416C31.1539 33.2416 29.666 33.2416 28.1781 33.2416Z" fill="currentColor"/>
                                <path d="M28.1047 23.8734C26.6351 23.8734 25.1656 23.8734 23.7145 23.8734C23.2001 23.8734 22.6491 23.8183 22.6307 23.1754C22.6123 22.5141 23.1634 22.459 23.6777 22.459C26.7086 22.459 29.7211 22.459 32.752 22.459C33.2664 22.459 33.8542 22.5508 33.7439 23.1937C33.6888 23.4693 33.1194 23.8367 32.7704 23.855C31.2274 23.9101 29.666 23.8734 28.1047 23.8734Z" fill="currentColor"/>
                                <path d="M26.1392 35.9969C25.2942 35.9969 24.4309 36.0704 23.5859 35.9602C23.2369 35.9235 22.943 35.501 22.6307 35.2622C22.943 35.0418 23.2369 34.6193 23.5676 34.6193C25.2942 34.5642 27.0393 34.5458 28.766 34.6193C29.0783 34.6376 29.5742 35.0234 29.6293 35.2989C29.7212 35.8867 29.2068 36.0153 28.7109 35.9969C27.8292 35.9969 26.9842 35.9969 26.1392 35.9969Z" fill="currentColor"/>
                                <path d="M26.0657 26.6289C25.2207 26.6289 24.3574 26.684 23.5124 26.5921C23.2001 26.5554 22.9062 26.1513 22.6123 25.9125C22.9062 25.6737 23.2001 25.2512 23.5124 25.2328C25.2758 25.1594 27.0392 25.1594 28.8027 25.2328C29.0966 25.2512 29.3537 25.7104 29.6476 25.9676C29.3721 26.188 29.0966 26.5738 28.8027 26.5921C27.9026 26.684 26.9841 26.6289 26.0657 26.6289Z" fill="currentColor"/>
                                <path d="M17.2119 16.6914C18.1854 15.6995 18.9753 14.8912 19.7652 14.083C20.1142 13.7156 20.5734 13.4401 20.904 13.936C21.051 14.1565 20.9224 14.7627 20.7204 15.0015C20.004 15.8281 19.1957 16.5996 18.4059 17.3527C17.6711 18.0507 16.8812 18.0507 16.1281 17.3527C15.8342 17.0772 15.4852 16.8384 15.3015 16.4893C15.1545 16.2322 15.2464 15.8464 15.228 15.5158C15.5587 15.5158 15.9628 15.4056 16.1832 15.5525C16.5873 15.8097 16.8261 16.2322 17.2119 16.6914Z" fill="currentColor"/>
                                <path d="M17.322 25.949C18.1854 25.0672 18.9936 24.259 19.7651 23.4508C20.1325 23.0834 20.5733 22.8262 20.9224 23.3222C21.0693 23.5426 20.9407 24.1488 20.7203 24.3876C20.0039 25.2142 19.1957 25.9857 18.4058 26.7388C17.6894 27.4368 16.8812 27.4185 16.128 26.7205C15.8158 26.4265 15.4484 26.151 15.2463 25.7836C15.1177 25.5632 15.1177 25.0672 15.2831 24.9203C15.4484 24.755 15.926 24.7366 16.1464 24.8652C16.5689 25.1223 16.8812 25.5265 17.322 25.949Z" fill="currentColor"/>
                                <path d="M17.2302 35.446C18.1671 34.4725 18.9569 33.6642 19.7468 32.856C20.0958 32.4886 20.4999 32.2498 20.9224 32.6539C21.3816 33.0948 21.0326 33.4805 20.702 33.8296C19.9672 34.5643 19.2508 35.3174 18.4977 36.0338C17.6895 36.8237 16.8996 36.8237 16.0914 36.0706C15.8158 35.8134 15.5036 35.593 15.3382 35.2807C15.1913 35.0052 15.2648 34.6378 15.228 34.3072C15.577 34.3255 15.9995 34.2153 16.2567 34.3806C16.6241 34.5827 16.8445 34.9868 17.2302 35.446Z" fill="currentColor"/>
                            </svg>